<?xml version="1.0" encoding="utf-8"?>
<!-- Generator: Adobe Illustrator 26.3.1, SVG Export Plug-In . SVG Version: 6.00 Build 0)  -->
<svg version="1.1" id="Layer_1" xmlns="http://www.w3.org/2000/svg" xmlns:xlink="http://www.w3.org/1999/xlink" x="0px" y="0px"
	 viewBox="0 0 40 40" style="enable-background:new 0 0 40 40;" xml:space="preserve">
<style type="text/css">
	.st0{fill:#3343E2;}
</style>
<path class="st0" d="M20,40c-8.5,0-13.2-1.2-16-4s-4-7.5-4-16C0,11.5,1.2,6.8,4,4c2.8-2.8,7.5-4,16-4c8.5,0,13.2,1.2,16,4
	s4,7.5,4,16c0,8.5-1.2,13.2-4,16S28.5,40,20,40z M20,2C12.2,2,7.8,3,5.4,5.4S2,12.2,2,20c0,7.8,1,12.2,3.4,14.6
	C7.8,37,12.2,38,20,38c7.8,0,12.2-1,14.6-3.4C37,32.2,38,27.8,38,20c0-7.8-1-12.2-3.4-14.6C32.2,3,27.8,2,20,2z"/>
</svg>
