<svg xmlns="http://www.w3.org/2000/svg" xmlns:xlink="http://www.w3.org/1999/xlink" width="0" height="0" style="position:absolute">									
	<symbol id="caret-down" viewBox="0 0 20 15">
    <path d="M9.2,14.6l-9-13C0.1,1.4,0,1.2,0,1.1c0-0.2,0-0.4,0.1-0.5c0.1-0.2,0.2-0.3,0.4-0.4C0.6,0.1,0.8,0,1,0h18
	c0.2,0,0.4,0,0.5,0.1c0.2,0.1,0.3,0.2,0.4,0.4C20,0.7,20,0.9,20,1.1c0,0.2-0.1,0.4-0.2,0.5l-9,13c-0.1,0.1-0.2,0.2-0.4,0.3
	C10.3,15,10.2,15,10,15s-0.3,0-0.5-0.1C9.4,14.8,9.3,14.7,9.2,14.6z"/>
  </symbol>

  <symbol id="caret-up" viewBox="0 0 20 15">
    <path d="M10.8,0.4l9,13c0.1,0.2,0.2,0.3,0.2,0.5c0,0.2,0,0.4-0.1,0.5c-0.1,0.2-0.2,0.3-0.4,0.4C19.4,14.9,19.2,15,19,15H1
	c-0.2,0-0.4,0-0.5-0.1c-0.2-0.1-0.3-0.2-0.4-0.4C0,14.3,0,14.1,0,13.9c0-0.2,0.1-0.4,0.2-0.5l9-13c0.1-0.1,0.2-0.2,0.4-0.3
	C9.7,0,9.8,0,10,0s0.3,0,0.5,0.1C10.6,0.2,10.7,0.3,10.8,0.4z"/>
  </symbol>
  
  <symbol id="check" viewBox="0 0 18 14">
    <path style="fill-rule:evenodd;clip-rule:evenodd;" d="M18,1.3L6.8,14L0,8l1.3-1.5l5.3,4.7L16.5,0C16.5,0,18,1.3,18,1.3z"/>
  </symbol>
    
  <symbol id="call" viewBox="0 0 20 20">
    <path d="M18.8,20c-2.4,0-4.7-0.5-7-1.6c-2.3-1.1-4.3-2.5-6-4.2c-1.8-1.7-3.2-3.8-4.2-6C0.5,5.9,0,3.6,0,1.2c0-0.3,0.1-0.6,0.3-0.8
	C0.6,0.1,0.8,0,1.2,0h4.5c0.3,0,0.5,0.1,0.7,0.2c0.2,0.2,0.3,0.4,0.4,0.6l0.7,3.9c0,0.3,0,0.5,0,0.7c0,0.2-0.2,0.4-0.3,0.6L4.4,8.8
	c0.8,1.3,1.8,2.6,2.9,3.8c1.2,1.2,2.5,2.2,3.9,3l2.6-2.6c0.2-0.2,0.4-0.3,0.7-0.4c0.3-0.1,0.5-0.1,0.8-0.1l3.8,0.8
	c0.3,0.1,0.5,0.2,0.6,0.4c0.2,0.2,0.2,0.4,0.2,0.7v4.5c0,0.3-0.1,0.6-0.3,0.8S19.2,20,18.8,20z"/>
  </symbol>
      
  <symbol id="mark_email_unread" viewBox="0 0 22.2 20">
    <path d="M18.9,6.7c-0.9,0-1.7-0.3-2.4-1c-0.6-0.6-1-1.4-1-2.4c0-0.9,0.3-1.7,1-2.4c0.6-0.6,1.4-1,2.4-1c0.9,0,1.7,0.3,2.4,1
	c0.6,0.6,1,1.4,1,2.4c0,0.9-0.3,1.7-1,2.4C20.6,6.3,19.8,6.7,18.9,6.7z M2.2,20c-0.6,0-1.1-0.2-1.6-0.7c-0.4-0.4-0.7-1-0.7-1.6V4.4
	c0-0.6,0.2-1.1,0.7-1.6c0.4-0.4,1-0.7,1.6-0.7h11.2c-0.1,0.4-0.1,0.7-0.1,1.1s0,0.7,0.1,1.1c0.1,0.6,0.3,1.1,0.6,1.7
	c0.3,0.5,0.7,1,1.1,1.3L11.1,10L2.2,4.4v2.2l8.9,5.6L17,8.6c0.3,0.1,0.6,0.2,0.9,0.2c0.3,0.1,0.6,0.1,1,0.1c0.6,0,1.2-0.1,1.8-0.3
	c0.6-0.2,1.1-0.5,1.6-0.8v10c0,0.6-0.2,1.1-0.7,1.6c-0.4,0.4-1,0.7-1.6,0.7H2.2z"/>
  </symbol>    

  <symbol id="telegram" viewBox="0 0 25 21">
    <path d="M23.3,0.1L1.2,8.7c-1.5,0.6-1.5,1.5-0.3,1.8l5.7,1.8L19.7,4c0.6-0.4,1.2-0.2,0.7,0.2L9.8,13.8h0l0,0l-0.4,5.9
	c0.6,0,0.8-0.3,1.2-0.6l2.8-2.7l5.7,4.2c1.1,0.6,1.8,0.3,2.1-1l3.8-17.8C25.3,0.4,24.3-0.3,23.3,0.1z"/>
  </symbol>
  
  <symbol id="whats-app" viewBox="0 0 22.5 22.6">
    <path style="fill-rule:evenodd;clip-rule:evenodd;" d="M19.3,3.3c-1-1-2.3-1.9-3.6-2.4C14.3,0.3,12.8,0,11.3,0C5.1,0,0.1,5,0.1,11.2c0,2,0.5,3.9,1.5,5.6L0,22.6
	l5.9-1.6c1.6,0.9,3.5,1.4,5.4,1.4h0c6.2,0,11.2-5,11.2-11.2c0-1.5-0.3-2.9-0.8-4.3C21.1,5.6,20.3,4.3,19.3,3.3z M11.3,20.6
	L11.3,20.6c-1.7,0-3.3-0.4-4.8-1.3l-0.3-0.2L2.7,20l0.9-3.4l-0.2-0.4C2.5,14.7,2,13,2,11.2c0-5.1,4.2-9.3,9.3-9.3
	c1.2,0,2.4,0.2,3.6,0.7s2.2,1.2,3,2c0.9,0.9,1.6,1.9,2,3c0.5,1.1,0.7,2.3,0.7,3.6C20.6,16.4,16.5,20.6,11.3,20.6z M16.4,13.6
	c-0.3-0.1-1.7-0.8-1.9-0.9c-0.3-0.1-0.4-0.1-0.6,0.1c-0.2,0.3-0.7,0.9-0.9,1.1c-0.2,0.2-0.3,0.2-0.6,0.1c-0.3-0.1-1.2-0.4-2.3-1.4
	c-0.8-0.7-1.4-1.7-1.6-1.9c-0.2-0.3,0-0.4,0.1-0.6C8.8,9.9,9,9.7,9.1,9.6c0.1-0.2,0.2-0.3,0.3-0.5c0.1-0.2,0-0.4,0-0.5
	C9.3,8.5,8.7,7.1,8.5,6.5C8.3,6,8.1,6.1,7.9,6C7.7,6,7.5,6,7.3,6c-0.1,0-0.3,0-0.4,0.1C6.8,6.2,6.7,6.3,6.6,6.4c-0.3,0.3-1,1-1,2.3
	s1,2.7,1.1,2.9c0.1,0.2,2,3,4.8,4.2c0.7,0.3,1.2,0.5,1.6,0.6c0.7,0.2,1.3,0.2,1.8,0.1c0.5-0.1,1.7-0.7,1.9-1.3
	C17,14.6,17,14,17,13.9C16.9,13.8,16.7,13.7,16.4,13.6z"/>
  </symbol>
</svg>
