<svg xmlns="http://www.w3.org/2000/svg" xmlns:xlink="http://www.w3.org/1999/xlink" width="0" height="0" style="position:absolute">									
	<symbol id="caret-down" viewBox="0 0 20 15">
    <path d="M9.2,14.6l-9-13C0.1,1.4,0,1.2,0,1.1c0-0.2,0-0.4,0.1-0.5c0.1-0.2,0.2-0.3,0.4-0.4C0.6,0.1,0.8,0,1,0h18
	c0.2,0,0.4,0,0.5,0.1c0.2,0.1,0.3,0.2,0.4,0.4C20,0.7,20,0.9,20,1.1c0,0.2-0.1,0.4-0.2,0.5l-9,13c-0.1,0.1-0.2,0.2-0.4,0.3
	C10.3,15,10.2,15,10,15s-0.3,0-0.5-0.1C9.4,14.8,9.3,14.7,9.2,14.6z"/>
  </symbol>

  <symbol id="caret-up" viewBox="0 0 20 15">
    <path d="M10.8,0.4l9,13c0.1,0.2,0.2,0.3,0.2,0.5c0,0.2,0,0.4-0.1,0.5c-0.1,0.2-0.2,0.3-0.4,0.4C19.4,14.9,19.2,15,19,15H1
	c-0.2,0-0.4,0-0.5-0.1c-0.2-0.1-0.3-0.2-0.4-0.4C0,14.3,0,14.1,0,13.9c0-0.2,0.1-0.4,0.2-0.5l9-13c0.1-0.1,0.2-0.2,0.4-0.3
	C9.7,0,9.8,0,10,0s0.3,0,0.5,0.1C10.6,0.2,10.7,0.3,10.8,0.4z"/>
  </symbol>
</svg>
